<?xml version="1.0" encoding="UTF-8" standalone="no" ?>
<!DOCTYPE svg PUBLIC "-//W3C//DTD SVG 1.1//EN" "http://www.w3.org/Graphics/SVG/1.1/DTD/svg11.dtd">
<svg xmlns="http://www.w3.org/2000/svg" xmlns:xlink="http://www.w3.org/1999/xlink" version="1.1" width="1280" height="1024" viewBox="0 0 1280 1024" xml:space="preserve">
<desc>Created with Fabric.js 5.3.0</desc>
<defs>
</defs>
<g transform="matrix(1 0 0 1 640 512)" id="background-logo"  >
<rect style="stroke: none; stroke-width: 0; stroke-dasharray: none; stroke-linecap: butt; stroke-dashoffset: 0; stroke-linejoin: miter; stroke-miterlimit: 4; fill: rgb(12,19,29); fill-rule: nonzero; opacity: 1;"  paint-order="stroke"  x="-640" y="-512" rx="0" ry="0" width="1280" height="1024" />
</g>
<g transform="matrix(1.9211538461538462 0 0 1.9211538461538462 640 395.6864080388972)" id="logo-logo"  >
<g style=""  paint-order="stroke"   >
		<g transform="matrix(0.917930923744532 0 0 0.9179309237445321 0 0)"  >
<g style=""  paint-order="stroke"   >
		<g transform="matrix(1 0 0 1 0 0)"  >
<linearGradient id="SVGID_2_548472" gradientUnits="userSpaceOnUse" gradientTransform="matrix(1 0 0 1 -100 -100)"  x1="0" y1="0" x2="0" y2="200">
<stop offset="0%" style="stop-color:rgb(23,234,217);stop-opacity: 1"/>
<stop offset="100%" style="stop-color:rgb(96,120,234);stop-opacity: 1"/>
</linearGradient>
<polygon style="stroke: none; stroke-width: 1; stroke-dasharray: none; stroke-linecap: butt; stroke-dashoffset: 0; stroke-linejoin: miter; stroke-miterlimit: 4; fill: url(#SVGID_2_548472); fill-rule: nonzero; opacity: 1;"  paint-order="stroke"  points="100,100 0,100 0,95.12 95.12,95.12 95.12,-95.12 -95.12,-95.12 -95.12,0 -100,0 -100,-100 100,-100 100,100 " />
</g>
</g>
</g>
</g>
</g>
<g transform="matrix(1.9211538461538462 0 0 1.9211538461538462 637.5697403846153 667.1128161574082)" id="text-logo"  >
<g style=""  paint-order="stroke"   >
		<g transform="matrix(1 0 0 1 0 0)" id="text-logo-path-0"  >
<filter id="SVGID_548467" y="-70.5050505050505%" height="241.010101010101%" x="-37.69598301185631%" width="175.39196602371263%" >
	<feGaussianBlur in="SourceAlpha" stdDeviation="10"></feGaussianBlur>
	<feOffset dx="0" dy="0" result="oBlur" ></feOffset>
	<feFlood flood-color="rgb(92,224,230)" flood-opacity="1"/>
	<feComposite in2="oBlur" operator="in" />
	<feMerge>
		<feMergeNode></feMergeNode>
		<feMergeNode in="SourceGraphic"></feMergeNode>
	</feMerge>
</filter>
<path style="stroke: rgb(255,255,255); stroke-width: 0; stroke-dasharray: none; stroke-linecap: butt; stroke-dashoffset: 0; stroke-linejoin: miter; stroke-miterlimit: 4; fill: rgb(49,192,223); fill-rule: nonzero; opacity: 1;filter: url(#SVGID_548467);"  paint-order="stroke"  transform=" translate(-58.71, 19.25)" d="M 2.2 0 L 6.05 0 L 8.25 -10.45 L 18.09 -10.45 L 20.3 0 L 24.14 0 L 16.06 -38.5 L 10.29 -38.5 Z M 8.96 -13.75 L 13.2 -33.94 L 17.43 -13.75 Z M 59.23 0.55 C 64.41 0.55 68.59 -0.88 68.59 -8.25 L 68.59 -9.35 C 68.59 -18.21 53.73 -23.87 53.73 -29.15 C 53.73 -34.16 55.88 -35.2 59.23 -35.2 C 62.59 -35.2 64.73 -34.16 64.73 -29.15 L 64.73 -26.95 L 68.59 -26.95 L 68.59 -30.25 C 68.59 -37.62 64.46 -39.05 59.23 -39.05 C 54.06 -39.05 49.88 -37.62 49.88 -30.25 L 49.88 -29.15 C 49.88 -21.23 64.73 -15.56 64.73 -9.35 C 64.73 -4.34 62.59 -3.3 59.23 -3.3 C 55.88 -3.3 53.73 -4.34 53.73 -9.35 L 53.73 -12.21 L 49.88 -12.21 L 49.88 -8.25 C 49.88 -0.99 54.01 0.55 59.23 0.55 Z M 105.88 -38.5 L 97.63 -38.5 L 97.63 0 L 105.88 0 C 111.1 0 115.22 -1.54 115.22 -8.8 L 115.22 -29.7 C 115.22 -37.07 111.1 -38.5 105.88 -38.5 Z M 101.47 -3.3 L 101.47 -35.2 L 105.88 -35.2 C 109.23 -35.2 111.38 -34.16 111.38 -29.15 L 111.38 -9.35 C 111.38 -4.34 109.23 -3.3 105.88 -3.3 Z" stroke-linecap="round" />
</g>
</g>
</g>
<g transform="matrix(1.9211538461538462 0 0 1.9211538461538462 639.9221932692308 399.4872725040416)" id="tagline-3a78d944-c0db-44d4-8ad5-60158c925687-logo"  >
<g style=""  paint-order="stroke"   >
		<g transform="matrix(1 0 0 1 0 0)" id="tagline-3a78d944-c0db-44d4-8ad5-60158c925687-logo-path-0"  >
<linearGradient id="SVGID_548473" gradientUnits="userSpaceOnUse" gradientTransform="matrix(1 0 0 1 3.2399999999999984 -56.7)"  x1="-3.1995006179809593" y1="-14.510339999999985" x2="-3.1995006179809593" y2="77.48966000000001">
<stop offset="0%" style="stop-color:rgb(23,234,217);stop-opacity: 1"/>
<stop offset="100%" style="stop-color:rgb(96,120,234);stop-opacity: 1"/>
</linearGradient>
<filter id="SVGID_548469" y="-55.273368606701936%" height="210.54673721340387%" x="-94.25742574257426%" width="288.5148514851485%" >
	<feGaussianBlur in="SourceAlpha" stdDeviation="10"></feGaussianBlur>
	<feOffset dx="4" dy="0" result="oBlur" ></feOffset>
	<feFlood flood-color="rgb(92,224,230)" flood-opacity="1"/>
	<feComposite in2="oBlur" operator="in" />
	<feMerge>
		<feMergeNode></feMergeNode>
		<feMergeNode in="SourceGraphic"></feMergeNode>
	</feMerge>
</filter>
<path style="stroke: rgb(255,255,255); stroke-width: 0; stroke-dasharray: none; stroke-linecap: butt; stroke-dashoffset: 0; stroke-linejoin: miter; stroke-miterlimit: 4; fill: url(#SVGID_548473); fill-rule: nonzero; opacity: 1;filter: url(#SVGID_548469);"  paint-order="stroke"  transform=" translate(-19.4, 28.35)" d="M 3.24 0 L 8.91 0 L 12.15 -15.39 L 26.65 -15.39 L 29.89 0 L 35.56 0 L 23.65 -56.7 L 15.15 -56.7 Z M 13.2 -20.25 L 19.44 -49.98 L 25.68 -20.25 Z" stroke-linecap="round" />
</g>
</g>
</g>
<g transform="matrix(1.9211538461538462 0 0 1.9211538461538462 639.5043423076922 774.3138155420236)" id="tagline-ee21041c-fd7a-4646-a088-df0a2334375e-logo"  >
<g style=""  paint-order="stroke"   >
		<g transform="matrix(1 0 0 1 0 0)" id="tagline-ee21041c-fd7a-4646-a088-df0a2334375e-logo-path-0"  >
<filter id="SVGID_548471" y="-91.0594315245478%" height="282.1188630490956%" x="-26.253908692933084%" width="152.50781738586616%" >
	<feGaussianBlur in="SourceAlpha" stdDeviation="11"></feGaussianBlur>
	<feOffset dx="0" dy="0" result="oBlur" ></feOffset>
	<feFlood flood-color="rgb(92,224,230)" flood-opacity="1"/>
	<feComposite in2="oBlur" operator="in" />
	<feMerge>
		<feMergeNode></feMergeNode>
		<feMergeNode in="SourceGraphic"></feMergeNode>
	</feMerge>
</filter>
<path style="stroke: none; stroke-width: 0; stroke-dasharray: none; stroke-linecap: butt; stroke-dashoffset: 0; stroke-linejoin: miter; stroke-miterlimit: 4; fill: rgb(63,171,226); fill-rule: nonzero; opacity: 1;filter: url(#SVGID_548471);"  paint-order="stroke"  transform=" translate(-177.60999999999999, 15.05)" d="M 1.72 0 L 4.73 0 L 6.45 -8.17 L 14.15 -8.17 L 15.87 0 L 18.88 0 L 12.56 -30.1 L 8.04 -30.1 Z M 7.01 -10.75 L 10.32 -26.53 L 13.63 -10.75 Z M 30.96 0 L 37.41 0 C 41.5 0 44.72 -1.2 44.72 -6.88 L 44.72 -10.32 C 44.72 -13.63 43.65 -15.14 41.92 -15.78 C 43.39 -16.55 44.29 -18.06 44.29 -21.07 L 44.29 -23.22 C 44.29 -28.98 41.06 -30.1 36.98 -30.1 L 30.96 -30.1 Z M 33.97 -2.58 L 33.97 -14.62 L 37.41 -14.62 C 40.03 -14.62 41.71 -13.8 41.71 -9.46 L 41.71 -7.31 C 41.71 -3.4 40.03 -2.58 37.41 -2.58 Z M 33.97 -16.77 L 33.97 -27.52 L 36.98 -27.52 C 39.6 -27.52 41.28 -26.7 41.28 -22.79 L 41.28 -21.5 C 41.28 -17.59 39.6 -16.77 36.98 -16.77 Z M 58.74 -30.1 L 58.74 0 L 61.75 0 L 61.75 -14.19 L 70.35 -14.19 L 70.35 0 L 73.36 0 L 73.36 -30.1 L 70.35 -30.1 L 70.35 -16.77 L 61.75 -16.77 L 61.75 -30.1 Z M 85.44 0 L 88.45 0 L 90.17 -8.17 L 97.87 -8.17 L 99.59 0 L 102.6 0 L 96.28 -30.1 L 91.76 -30.1 Z M 90.73 -10.75 L 94.04 -26.53 L 97.35 -10.75 Z M 116.79 -11.61 L 116.79 0 L 119.8 0 L 119.8 -11.61 L 126.85 -30.1 L 123.84 -30.1 L 118.29 -15.57 L 112.75 -30.1 L 109.74 -30.1 Z M 137.64 -4.3 L 137.64 0 L 141.51 0 L 141.51 -4.3 Z M 161.98 0.43 C 166.02 0.43 169.29 -0.69 169.29 -6.45 L 169.29 -7.31 C 169.29 -14.23 157.68 -18.66 157.68 -22.79 C 157.68 -26.7 159.36 -27.52 161.98 -27.52 C 164.6 -27.52 166.28 -26.7 166.28 -22.79 L 166.28 -21.07 L 169.29 -21.07 L 169.29 -23.65 C 169.29 -29.41 166.07 -30.53 161.98 -30.53 C 157.94 -30.53 154.67 -29.41 154.67 -23.65 L 154.67 -22.79 C 154.67 -16.6 166.28 -12.17 166.28 -7.31 C 166.28 -3.4 164.6 -2.58 161.98 -2.58 C 159.36 -2.58 157.68 -3.4 157.68 -7.31 L 157.68 -9.55 L 154.67 -9.55 L 154.67 -6.45 C 154.67 -0.77 157.9 0.43 161.98 0.43 Z M 182.45 -4.3 L 182.45 0 L 186.32 0 L 186.32 -4.3 Z M 206.79 -30.1 L 200.34 -30.1 L 200.34 0 L 206.79 0 C 210.87 0 214.1 -1.2 214.1 -6.88 L 214.1 -23.22 C 214.1 -28.98 210.87 -30.1 206.79 -30.1 Z M 203.35 -2.58 L 203.35 -27.52 L 206.79 -27.52 C 209.41 -27.52 211.09 -26.7 211.09 -22.79 L 211.09 -7.31 C 211.09 -3.4 209.41 -2.58 206.79 -2.58 Z M 225.53 0 L 228.54 0 L 230.26 -8.17 L 237.96 -8.17 L 239.68 0 L 242.69 0 L 236.37 -30.1 L 231.86 -30.1 Z M 230.82 -10.75 L 234.13 -26.53 L 237.45 -10.75 Z M 254.77 -30.1 L 254.77 0 L 257.78 0 L 257.78 -22.79 L 267.16 0 L 270.17 0 L 270.17 -30.1 L 267.16 -30.1 L 267.16 -7.31 L 257.78 -30.1 Z M 291.28 -30.1 L 284.83 -30.1 L 284.83 0 L 291.28 0 C 295.37 0 298.59 -1.2 298.59 -6.88 L 298.59 -23.22 C 298.59 -28.98 295.37 -30.1 291.28 -30.1 Z M 287.84 -2.58 L 287.84 -27.52 L 291.28 -27.52 C 293.9 -27.52 295.58 -26.7 295.58 -22.79 L 295.58 -7.31 C 295.58 -3.4 293.9 -2.58 291.28 -2.58 Z M 326.58 -15.05 L 318.84 -15.05 L 318.84 -12.47 L 323.57 -12.47 L 323.57 -7.31 C 323.57 -3.4 321.9 -2.58 319.27 -2.58 C 316.65 -2.58 314.97 -3.4 314.97 -7.31 L 314.97 -22.79 C 314.97 -26.7 316.65 -27.52 319.27 -27.52 C 321.9 -27.52 323.57 -26.7 323.57 -22.79 L 323.57 -18.49 L 326.58 -18.49 L 326.58 -23.65 C 326.58 -29.41 323.36 -30.53 319.27 -30.53 C 315.23 -30.53 311.96 -29.41 311.96 -23.65 L 311.96 -6.45 C 311.96 -0.69 315.23 0.43 319.27 0.43 C 320.61 0.43 322.71 -0.17 323.88 -2.49 L 324.86 0 L 326.58 0 Z M 340.6 -30.1 L 340.6 0 L 353.5 0 L 353.5 -2.58 L 343.61 -2.58 L 343.61 -13.76 L 350.92 -13.76 L 350.92 -16.34 L 343.61 -16.34 L 343.61 -27.52 L 353.07 -27.52 L 353.07 -30.1 Z" stroke-linecap="round" />
</g>
</g>
</g>
</svg>